<?xml version="1.0" encoding="UTF-8" standalone="no"?>
<!-- Created with Inkscape (http://www.inkscape.org/) -->

<svg
   version="1.1"
   id="svg55"
   width="558"
   height="558"
   viewBox="0 0 558 558"
   sodipodi:docname="icon.svg"
   inkscape:version="1.1.2 (0a00cf5339, 2022-02-04)"
   xmlns:inkscape="http://www.inkscape.org/namespaces/inkscape"
   xmlns:sodipodi="http://sodipodi.sourceforge.net/DTD/sodipodi-0.dtd"
   xmlns="http://www.w3.org/2000/svg"
   xmlns:svg="http://www.w3.org/2000/svg">
  <defs
     id="defs59" />
  <sodipodi:namedview
     id="namedview57"
     pagecolor="#505050"
     bordercolor="#ffffff"
     borderopacity="1"
     inkscape:pageshadow="0"
     inkscape:pageopacity="0"
     inkscape:pagecheckerboard="1"
     showgrid="false"
     inkscape:zoom="3.4265233"
     inkscape:cx="196.70084"
     inkscape:cy="279"
     inkscape:window-width="3836"
     inkscape:window-height="2121"
     inkscape:window-x="0"
     inkscape:window-y="18"
     inkscape:window-maximized="1"
     inkscape:current-layer="g61" />
  <g
     inkscape:groupmode="layer"
     inkscape:label="Image"
     id="g61">
    <circle
       style="fill:#00ff00;fill-rule:evenodd;stroke:#000000;stroke-width:0.984536;stroke-opacity:1"
       id="path170"
       cx="279.96713"
       cy="278.03287"
       r="274.6857" />
    <path
       style="fill:#000000"
       d="M 251.5,555.87767 C 189.12193,549.97227 127.58729,520.74949 82.418899,475.5811 31.919979,425.08218 3.5114297,359.37305 1.3204747,288 -0.1542616,239.95865 8.7631517,198.74337 29.988419,155.5 66.656767,80.793609 136.87793,25.611078 218.15098,7.6345042 241.44416,2.4823478 250.69211,1.558978 279,1.558978 c 28.30789,0 37.55584,0.9233698 60.84902,6.0755262 98.99392,21.8962068 178.32897,96.9671558 206.72156,195.6107058 12.67594,44.03967 13.76634,95.49819 2.97384,140.343 -23.59328,98.03439 -97.40704,174.95272 -194.78963,202.98237 -14.7285,4.2393 -34.33868,7.92698 -49.75479,9.35633 -13.2026,1.22412 -40.31318,1.19916 -53.5,-0.0492 z m 41.68156,-21.87004 c 19.19978,-1.2439 33.32142,-3.39318 49.46173,-7.52797 89.80494,-23.00602 160.83035,-94.03143 183.83637,-183.83637 10.53233,-41.11339 10.53233,-86.17319 0,-127.28658 C 503.47364,125.55177 432.44823,54.526356 342.64329,31.520339 301.5299,20.988005 256.4701,20.988005 215.35671,31.520339 125.55177,54.526356 54.526356,125.55177 31.520339,215.35671 c -10.532334,41.11339 -10.532334,86.17319 0,127.28658 23.010197,89.82125 94.015841,160.81726 183.872021,183.84707 15.30384,3.92232 31.36441,6.44541 47.60764,7.4791 6.325,0.40251 12.4,0.78977 13.5,0.86059 1.1,0.0708 8.6067,-0.29927 16.68156,-0.82242 z M 264.4,503.6 261,500.2 v -94.8726 -94.87259 l -3.50789,-1.88913 c -1.92934,-1.03901 -5.77869,-4.29016 -8.55411,-7.22476 -14.67081,-15.51221 -15.54352,-38.55259 -2.12709,-56.15693 3.95492,-5.18944 12.96418,-11.05811 20.4806,-13.34115 20.18173,-6.13001 41.07602,2.98168 50.48268,22.01476 5.18506,12.42027 5.75017,25.33925 0.61545,36.1424 -3.85006,8.04583 -9.58453,14.57229 -16.25501,18.5 l -5.09494,3 -0.0199,94.35 -0.0198,94.35 -3.4,3.4 -3.4,3.4 h -11.2 -11.2 l -3.4,-3.4 z M 390.95318,392.25308 c -2.46273,-2.6142 -5.93512,-6.34996 -7.71642,-8.30171 l -3.23874,-3.54863 6.04526,-6.45137 c 12.67766,-13.52933 22.29313,-28.26115 29.13726,-44.64108 21.86548,-52.33023 10.90338,-114.39581 -27.34062,-154.79795 l -8.03027,-8.48343 7.84518,-8.4463 7.84517,-8.4463 4.33606,4.18185 c 39.4872,38.08281 57.73259,99.02428 46.19232,154.28713 -6.56797,31.45202 -23.33354,62.63139 -45.24739,84.14779 l -5.35011,5.25307 z M 157.36945,388.75 c -37.59313,-39.11146 -53.72572,-96.52324 -42.34041,-150.67871 6.40633,-30.47244 24.16089,-63.55505 44.77361,-83.42803 l 4.0003,-3.85674 7.34852,7.71357 c 4.04169,4.24246 7.50297,8.12882 7.69173,8.63634 0.18876,0.50753 -2.60106,4.04385 -6.19959,7.85849 -36.91335,39.13009 -48.18721,99.24365 -28.27971,150.79073 6.46162,16.73127 15.19444,30.87091 28.10701,45.50914 7.7044,8.73404 7.74537,8.81003 5.93114,11 C 175.04582,386.34612 165.57048,396 164.9503,396 c -0.33676,0 -3.74815,-3.2625 -7.58085,-7.25 z m 30.64943,-30.47071 C 171.73035,340.50324 161.66158,320.81897 156.41794,296.5 c -2.37634,-11.021 -2.37634,-35.979 0,-47 5.25524,-24.37278 15.39134,-44.02982 31.97013,-62 l 4.61286,-5 8.00538,8.39719 8.00539,8.3972 -4.81067,5.1028 c -18.13562,19.23697 -28.75316,49.36104 -26.647,75.60281 1.84407,22.97621 11.62654,45.49809 26.81481,61.73493 l 5.86884,6.27401 -7.71283,8.49553 C 198.28279,361.17701 194.66918,365 194.4946,365 c -0.17458,0 -3.08865,-3.02432 -6.47572,-6.72071 z m 168.13903,-3.32171 -7.34209,-7.99134 5.38223,-5.81344 c 19.00703,-20.52986 29.15446,-51.42688 25.83174,-78.6528 -2.73217,-22.38708 -12.07961,-43.09221 -26.23082,-58.10281 l -4.81067,-5.1028 8.00539,-8.3972 8.00538,-8.39719 4.61286,5 c 12.62048,13.67967 21.97997,29.14681 27.2786,45.07961 5.15471,15.50004 6.41649,23.44853 6.41649,40.42039 0,26.62127 -6.61062,48.58528 -20.98538,69.72464 -5.91759,8.70235 -16.00526,20.28496 -17.63622,20.24981 -0.65198,-0.014 -4.48936,-3.62164 -8.52751,-8.01687 z"
       id="path1121"
       sodipodi:nodetypes="sssssssssssssssssssssssssccccssssccscccccccccsscssscccssscsssscsscssssssssscccssscsssscssscccssssss" />
  </g>
</svg>
