<?xml version="1.0" encoding="utf-8"?>
<!-- Svg Vector Icons : http://www.onlinewebfonts.com/icon -->
<!DOCTYPE svg PUBLIC "-//W3C//DTD SVG 1.1//EN" "http://www.w3.org/Graphics/SVG/1.1/DTD/svg11.dtd">
<svg version="1.1" xmlns="http://www.w3.org/2000/svg" xmlns:xlink="http://www.w3.org/1999/xlink" x="0px" y="0px" viewBox="0 0 256 256" enable-background="new 0 0 256 256" xml:space="preserve">
<metadata> Svg Vector Icons : http://www.onlinewebfonts.com/icon </metadata>
<g><g><g><g id="c154_volume"><g><path fill="#000000" d="M128,10C62.8,10,10,62.8,10,128c0,65.2,52.8,118,118,118c65.2,0,118-52.8,118-118C246,62.8,193.2,10,128,10z M128,233.9c-58.5,0-105.9-47.4-105.9-106C22.1,69.5,69.5,22.1,128,22.1c58.5,0,105.9,47.4,105.9,105.9C233.9,186.5,186.5,233.9,128,233.9z"/></g><path fill="#000000" d="M126.7,67.9l-45.5,34H57.5v52.6h23.6l44.6,33.1c0,0,8.2,6.9,8.2-0.2c0-7.1,0-112.8,0-119.3C133.9,62.4,126.7,67.9,126.7,67.9z"/><path fill="#000000" d="M159.3,91.6c-2.3-2.3-6.1-2.3-8.5,0c-2.3,2.3-2.3,6.1,0,8.5c7.7,7.7,11.5,17.8,11.5,27.9c0,10.2-3.8,20.3-11.5,28c-2.3,2.3-2.3,6.2,0,8.5c1.2,1.2,2.7,1.8,4.3,1.8c1.5,0,3.1-0.6,4.2-1.8c10.1-10,15.1-23.3,15.1-36.4C174.4,114.9,169.3,101.7,159.3,91.6z"/><path fill="#000000" d="M167,72.7c-2.3,2.4-2.3,6.2,0,8.5c13,13,19.5,29.9,19.5,46.8c0,17.1-6.5,34-19.5,47.1c-2.3,2.4-2.3,6.2,0,8.5c1.2,1.2,2.7,1.8,4.3,1.8c1.5,0,3.1-0.6,4.2-1.8c15.3-15.3,23-35.5,22.9-55.6c0-20-7.7-40.1-22.9-55.4C173.2,70.4,169.4,70.4,167,72.7z"/></g></g><g></g><g></g><g></g><g></g><g></g><g></g><g></g><g></g><g></g><g></g><g></g><g></g><g></g><g></g><g></g></g></g>
</svg>